<?xml version="1.0" standalone="no"?>
<!DOCTYPE svg PUBLIC "-//W3C//DTD SVG 20010904//EN"
 "http://www.w3.org/TR/2001/REC-SVG-20010904/DTD/svg10.dtd">
<svg version="1.0" xmlns="http://www.w3.org/2000/svg"
 width="330.000000pt" height="263.000000pt" viewBox="0 0 330.000000 263.000000"
 preserveAspectRatio="xMidYMid meet">

<g transform="translate(0.000000,263.000000) scale(0.100000,-0.100000)"
fill="#000000" stroke="none">
<path d="M1032 2018 l3 -193 28 -3 c24 -3 27 -8 27 -38 l0 -34 -225 0 c-212 0
-225 -1 -235 -19 -13 -25 -13 -70 0 -107 9 -25 6 -42 -20 -103 -27 -66 -30
-85 -30 -180 0 -79 4 -112 15 -127 12 -16 14 -82 15 -406 l0 -388 1060 0 1060
0 0 408 c0 396 1 409 20 427 28 25 28 107 0 135 -24 24 -56 206 -39 226 6 7 9
39 7 71 l-3 58 -230 5 -230 5 -3 32 c-3 29 -1 32 30 35 l33 3 0 190 0 190
-643 3 -642 2 2 -192z m1248 2 l0 -160 -605 0 -605 0 0 160 0 160 605 0 605 0
0 -160z m-1100 -235 c0 -31 -3 -35 -25 -35 -22 0 -25 4 -25 35 0 31 3 35 25
35 22 0 25 -4 25 -35z m948 3 l-3 -33 -450 0 -450 0 -3 33 -3 32 456 0 456 0
-3 -32z m92 -4 c0 -33 -2 -35 -27 -32 -23 2 -29 8 -31 36 -3 30 -1 32 27 32
29 0 31 -3 31 -36z m468 -106 l-3 -43 -1010 0 -1010 0 -3 43 -3 42 1016 0
1016 0 -3 -42z m-1898 -80 c0 -2 -11 -39 -25 -83 -19 -61 -25 -102 -25 -172 0
-103 -15 -133 -65 -133 -14 0 -34 9 -45 20 -32 32 -29 175 5 261 47 119 38
109 100 109 30 0 55 -1 55 -2z m145 -20 c-3 -13 -10 -45 -17 -73 -6 -27 -14
-99 -17 -160 -6 -106 -7 -110 -33 -125 -25 -13 -31 -13 -55 0 -27 15 -28 18
-31 115 -3 80 1 116 20 183 l22 82 58 0 c55 0 58 -1 53 -22z m161 -20 c-3 -24
-9 -105 -13 -181 -5 -124 -8 -140 -27 -153 -29 -20 -59 -18 -90 7 -25 19 -26
25 -26 112 0 51 8 129 17 175 l17 82 64 0 65 0 -7 -42z m199 25 c-3 -10 -9
-89 -12 -176 -6 -153 -7 -159 -31 -178 -32 -25 -73 -24 -107 3 l-28 22 6 163
c3 89 8 167 12 173 3 5 42 10 87 10 72 0 79 -2 73 -17z m181 -14 c-3 -17 -6
-94 -6 -171 0 -134 -1 -140 -25 -163 -33 -33 -70 -32 -106 4 -25 26 -29 37
-29 88 0 32 5 106 12 166 l11 107 75 0 75 0 -7 -31z m184 -138 c0 -151 -2
-171 -19 -192 -14 -18 -29 -24 -61 -24 -80 0 -91 45 -74 293 l7 92 73 0 74 0
0 -169z m1018 87 c7 -46 12 -91 12 -101 0 -16 -28 -17 -497 -15 l-498 3 -3 98
-3 97 489 0 489 0 11 -82z m60 -189 c2 -22 -2 -40 -11 -47 -11 -9 -145 -12
-523 -10 l-509 3 -3 48 -3 47 523 -2 523 -3 3 -36z m-38 -484 l0 -395 -50 0
-50 0 -2 293 -3 292 -162 3 -163 2 0 -295 0 -295 -290 0 -290 0 0 395 0 395
505 0 505 0 0 -395z m-1685 335 c26 0 51 7 66 19 24 19 25 19 48 0 33 -27 110
-26 145 2 l26 20 26 -20 c35 -27 102 -28 136 -2 23 19 24 19 48 0 27 -20 114
-27 125 -9 21 35 25 -18 25 -365 l0 -375 -290 0 -290 0 -2 293 -3 292 -162 3
-163 2 0 -295 0 -295 -50 0 -50 0 0 365 0 365 33 0 c18 0 43 7 55 16 20 14 24
14 44 0 31 -22 91 -20 119 3 23 19 24 19 48 0 15 -12 40 -19 66 -19z m33 -452
l2 -278 -135 0 -135 0 0 273 c0 151 3 277 7 281 4 3 63 5 132 4 l126 -3 3
-277z m1512 2 l0 -280 -130 0 -130 0 0 280 0 280 130 0 130 0 0 -280z"/>
<path d="M1303 2148 c-4 -7 -22 -42 -39 -78 l-31 -65 -34 72 c-23 49 -40 72
-52 73 -16 0 -17 -11 -15 -127 3 -106 6 -128 18 -128 12 0 16 17 20 75 l5 75
19 -43 c31 -69 41 -71 73 -10 l28 53 3 -77 c2 -60 6 -78 17 -78 12 0 15 23 15
129 0 122 -8 158 -27 129z"/>
<path d="M1423 2148 c-10 -13 -63 -216 -63 -243 0 -27 28 -16 35 15 6 25 11
30 36 30 24 0 32 -6 40 -30 11 -30 23 -38 34 -21 6 11 -52 242 -64 254 -4 4
-12 2 -18 -5z m23 -155 c-2 -3 -11 -3 -18 -1 -12 2 -13 10 -5 38 l10 35 9 -34
c5 -18 7 -35 4 -38z"/>
<path d="M1535 2148 c-11 -28 -1 -251 12 -255 8 -3 13 13 15 49 4 68 20 69 56
4 45 -82 74 -68 31 15 l-20 41 20 22 c27 29 28 87 1 111 -26 23 -108 33 -115
13z m99 -50 c16 -26 -4 -52 -43 -56 -29 -3 -31 -1 -31 31 0 18 3 37 7 41 13
12 56 2 67 -16z"/>
<path d="M1707 2153 c-12 -11 -8 -251 4 -259 14 -8 29 14 29 46 1 24 2 24 35
-13 18 -22 39 -36 44 -32 17 10 14 17 -33 74 l-45 54 45 54 c24 30 44 59 44
63 0 25 -22 16 -54 -22 l-36 -42 0 31 c0 30 -21 59 -33 46z"/>
<path d="M1867 2153 c-4 -3 -7 -64 -7 -135 l0 -128 69 0 c69 0 98 13 70 31 -8
5 -36 9 -62 9 l-48 0 3 38 3 37 55 5 c70 6 67 24 -5 28 l-55 3 0 39 0 40 54 0
c55 0 81 15 55 31 -16 10 -123 12 -132 2z"/>
<path d="M2047 2154 c-18 -18 -5 -34 28 -34 l35 0 0 -115 c0 -96 3 -115 15
-115 12 0 15 19 15 115 l0 115 36 0 c28 0 35 3 32 18 -3 14 -16 17 -79 20 -41
1 -78 0 -82 -4z"/>
<path d="M1730 855 l0 -185 250 0 250 0 0 185 0 185 -250 0 -250 0 0 -185z
m470 40 l0 -115 -220 0 -220 0 0 115 0 115 220 0 220 0 0 -115z m0 -170 c0
-13 -31 -15 -220 -15 -189 0 -220 2 -220 15 0 13 31 15 220 15 189 0 220 -2
220 -15z"/>
<path d="M1114 1027 c-2 -7 -3 -89 -2 -182 l3 -170 250 0 250 0 3 183 2 182
-250 0 c-195 0 -252 -3 -256 -13z m474 -134 l3 -113 -221 0 -220 0 0 115 0
115 218 -2 217 -3 3 -112z m2 -168 c0 -13 -31 -15 -220 -15 -189 0 -220 2
-220 15 0 13 31 15 220 15 189 0 220 -2 220 -15z"/>
<path d="M964 699 c-3 -6 0 -18 9 -26 18 -18 37 -9 37 18 0 21 -34 27 -46 8z"/>
<path d="M2334 699 c-3 -6 1 -18 9 -27 13 -12 19 -13 31 -3 8 7 12 19 9 27 -6
17 -39 19 -49 3z"/>
</g>
</svg>
