<?xml version="1.0" standalone="no"?>
<!DOCTYPE svg PUBLIC "-//W3C//DTD SVG 20010904//EN"
 "http://www.w3.org/TR/2001/REC-SVG-20010904/DTD/svg10.dtd">
<svg version="1.0" xmlns="http://www.w3.org/2000/svg"
 width="383.000000pt" height="248.000000pt" viewBox="0 0 383.000000 248.000000"
 preserveAspectRatio="xMidYMid meet">

<g transform="translate(0.000000,248.000000) scale(0.100000,-0.100000)"
fill="#000000" stroke="none">
<path d="M2445 2310 c-19 -22 -34 -83 -35 -147 0 -41 -1 -43 -50 -64 -27 -12
-50 -25 -50 -28 0 -4 -9 -17 -21 -30 l-21 -22 -23 25 c-44 48 -115 24 -115
-37 0 -15 -2 -27 -4 -27 -2 0 -62 -18 -133 -40 -140 -44 -248 -70 -294 -70
-26 0 -29 3 -23 25 13 52 -31 105 -87 105 -11 0 -31 -11 -45 -25 -22 -22 -25
-33 -22 -73 l3 -47 -57 -3 -58 -3 0 144 c0 158 0 157 -60 157 -60 0 -60 0 -60
-150 l0 -138 -27 -6 c-16 -3 -138 -24 -273 -47 -135 -22 -248 -46 -252 -52 -4
-7 -8 -125 -8 -262 0 -162 -4 -255 -10 -261 -6 -6 -10 -41 -8 -80 l3 -69 45
-5 c38 -4 46 -9 55 -34 9 -25 7 -31 -15 -45 -79 -52 -126 -126 -136 -217 -10
-85 17 -156 84 -223 64 -64 107 -81 198 -81 246 1 361 307 181 481 -21 21 -54
44 -73 51 -37 13 -40 19 -24 49 10 18 24 19 299 19 280 0 289 -1 294 -20 5
-19 14 -20 122 -20 103 0 120 -2 143 -21 16 -12 34 -18 48 -15 19 5 22 -1 33
-52 14 -62 49 -147 79 -190 15 -21 17 -33 10 -52 -14 -38 -1 -86 33 -120 35
-35 61 -38 89 -10 20 20 20 19 67 -12 49 -33 160 -78 194 -78 10 0 27 -10 37
-21 42 -52 55 -59 108 -59 55 0 70 10 76 49 2 20 12 27 53 36 60 14 134 46
178 77 25 18 42 22 88 20 51 -3 61 0 89 25 37 34 44 78 14 100 -18 13 -18 14
-1 41 32 49 66 126 82 187 8 33 21 62 27 64 7 2 25 17 40 32 23 22 28 36 28
76 0 56 -12 73 -51 73 -25 0 -29 5 -40 57 -7 32 -32 95 -56 141 -32 63 -41 90
-36 112 7 40 -2 73 -32 108 -24 29 -25 33 -27 228 -2 160 -6 199 -17 199 -7 0
-41 -40 -75 -90 l-61 -90 -80 -5 c-82 -5 -125 -23 -145 -60 -9 -17 -12 -17
-54 -2 -59 22 -97 9 -111 -36 -8 -29 -39 -52 -52 -38 -3 3 -8 66 -11 141 -4
111 -2 135 9 135 8 0 24 -27 37 -64 42 -116 99 -148 134 -76 49 97 -8 411 -83
464 -30 21 -42 20 -64 -4z m59 -52 c47 -74 83 -316 57 -382 -11 -26 -13 -28
-27 -14 -32 32 -67 160 -72 265 -6 142 7 185 42 131z m-1134 -323 c0 -158 -1
-165 -20 -165 -19 0 -20 7 -20 165 0 158 1 165 20 165 19 0 20 -7 20 -165z
m1041 98 c-43 -32 -42 -30 -40 -184 l2 -150 -74 -37 c-41 -20 -77 -38 -81 -40
-5 -2 -8 67 -8 154 0 148 1 159 22 181 12 13 30 23 40 23 16 0 18 -11 18 -129
0 -71 3 -136 6 -145 7 -19 34 -21 34 -3 1 6 0 85 0 175 l-1 163 43 19 c40 18
43 18 49 2 4 -10 0 -22 -10 -29z m-195 -14 c10 -17 -23 -46 -37 -32 -7 7 -9
19 -6 27 7 18 33 21 43 5z m-591 -73 c18 -13 18 -18 7 -48 -6 -19 -12 -55 -12
-81 0 -40 -3 -47 -20 -47 -18 0 -20 7 -20 54 0 30 -4 58 -10 61 -16 10 -11 53
8 64 23 14 25 13 47 -3z m545 -166 l0 -170 -35 0 c-27 0 -48 11 -91 45 -30 25
-82 59 -115 75 l-59 30 0 49 0 49 103 32 c56 17 120 37 142 45 22 7 43 14 48
14 4 1 7 -75 7 -169z m789 -157 c-21 -21 -24 -22 -41 -6 -15 13 -18 32 -18
115 0 97 1 99 38 155 l37 56 3 -148 c2 -141 1 -149 -19 -172z m-1140 185 l-1
-43 -12 35 c-12 31 -7 49 12 50 1 0 2 -19 1 -42z m-59 -4 c6 -14 10 -27 10
-30 0 -2 -25 -4 -55 -4 -51 0 -55 2 -55 23 0 32 7 37 52 37 32 0 40 -4 48 -26z
m-470 -9 l0 -25 -127 1 c-71 1 -120 3 -111 6 14 3 203 38 231 42 4 1 7 -10 7
-24z m250 -5 c0 -18 -7 -20 -65 -20 -47 0 -65 4 -65 13 0 23 11 27 72 27 51 0
58 -2 58 -20z m1320 -56 c0 -57 -3 -74 -12 -71 -7 3 -44 15 -83 28 -38 12 -80
25 -93 30 l-23 9 22 31 c28 39 50 48 127 48 l62 1 0 -76z m-258 -1 c14 -12 18
-36 20 -112 3 -82 6 -96 21 -99 15 -3 17 5 17 71 0 40 3 76 6 80 18 18 183
-54 252 -111 l44 -35 -51 -51 c-49 -49 -65 -86 -39 -86 7 0 38 26 70 57 46 45
58 64 58 88 0 17 -5 36 -11 42 -7 7 -7 13 -1 17 15 9 52 -42 52 -71 0 -17 -21
-47 -65 -92 -36 -37 -65 -73 -65 -79 0 -28 24 -19 73 27 30 28 56 51 59 51 3
0 19 -28 36 -62 35 -69 62 -164 62 -215 l0 -32 -77 -3 c-61 -2 -78 -6 -78 -18
0 -12 17 -16 84 -18 91 -3 131 12 131 48 0 11 5 20 10 20 6 0 10 -15 10 -34 0
-57 -34 -76 -140 -76 -91 0 -107 -5 -89 -27 7 -8 34 -13 75 -13 57 0 64 -2 64
-20 0 -46 -64 -184 -114 -245 l-25 -30 -53 52 c-56 55 -78 65 -78 35 0 -21 96
-117 127 -127 12 -3 32 -1 43 5 29 16 37 5 15 -20 -11 -13 -31 -20 -53 -20
-28 0 -45 11 -103 67 -51 49 -72 64 -80 56 -8 -8 0 -25 31 -62 23 -27 47 -52
53 -54 50 -16 -181 -117 -270 -117 l-32 0 -3 77 c-3 65 -6 78 -20 81 -16 3
-18 -6 -18 -85 0 -48 4 -93 8 -99 4 -6 21 -18 37 -27 26 -13 27 -16 12 -22
-22 -9 -75 12 -87 36 -6 10 -10 59 -10 109 0 82 -2 91 -17 88 -15 -3 -19 -16
-21 -77 l-3 -73 -35 5 c-72 12 -254 113 -254 141 0 6 23 34 51 62 48 48 56 74
25 74 -19 0 -114 -104 -121 -133 -4 -14 -2 -34 4 -45 16 -29 14 -34 -9 -22
-20 11 -37 53 -31 80 1 8 29 45 62 82 32 36 59 71 59 77 0 23 -27 9 -70 -34
-24 -25 -48 -45 -52 -45 -13 0 -60 89 -78 148 -10 31 -21 81 -25 110 l-7 52
82 0 c72 0 81 2 78 18 -3 14 -17 17 -90 20 -83 3 -87 2 -107 -24 -12 -15 -21
-33 -21 -41 0 -8 -4 -11 -10 -8 -13 8 -13 38 1 69 16 34 56 46 150 46 61 0 79
3 79 14 0 20 -23 26 -92 26 l-60 0 7 33 c14 62 47 137 86 197 23 33 44 60 48
60 4 0 29 -22 56 -50 47 -48 85 -64 85 -37 0 7 -27 39 -59 71 -59 58 -60 59
-105 53 -25 -4 -46 -5 -46 -2 0 2 10 13 22 25 40 37 73 27 148 -46 62 -60 90
-73 90 -41 0 6 -23 35 -51 63 l-52 52 54 31 c70 41 177 73 225 69 l39 -3 3
-78 c2 -68 5 -78 20 -75 13 2 18 16 20 63 5 97 -3 124 -45 142 -28 11 -33 17
-22 24 18 11 58 2 81 -18z m-693 -38 c84 -45 141 -91 141 -116 0 -18 -12 -19
-406 -19 l-406 0 -44 45 c-56 56 -94 66 -236 63 -105 -3 -113 -4 -113 -23 0
-19 8 -20 143 -25 l143 -5 32 -37 c18 -20 42 -41 54 -47 14 -7 153 -11 415
-11 l393 -1 18 -24 c18 -25 18 -26 -22 -106 -22 -44 -46 -107 -53 -140 -8 -40
-18 -61 -30 -64 -24 -8 -68 -63 -68 -86 0 -14 -7 -19 -30 -19 l-30 0 0 73 c0
43 -5 78 -12 85 -7 7 -39 12 -75 12 -35 0 -63 4 -63 10 0 6 29 10 66 10 50 0
75 -5 101 -21 46 -29 63 -20 63 35 0 45 0 45 37 48 27 2 39 8 41 21 3 15 -5
17 -57 17 l-61 0 0 -33 c0 -44 -5 -48 -41 -30 -29 14 -30 17 -27 71 l3 57 123
3 c110 2 123 4 120 20 -3 16 -37 17 -462 20 -330 1 -463 -1 -472 -9 -10 -8
-14 -40 -14 -115 l0 -104 -99 0 -100 0 -3 48 -3 47 -40 3 c-66 5 -74 16 -15
22 40 3 55 9 55 20 0 11 -14 16 -48 20 -26 3 -47 10 -47 15 0 6 21 12 47 15
34 4 48 9 48 20 0 11 -15 17 -55 20 -59 6 -51 17 15 22 28 2 40 8 40 18 0 11
-13 16 -47 18 -27 2 -48 7 -48 12 0 5 21 10 48 12 34 2 47 7 47 18 0 11 -14
16 -50 20 l-50 5 -3 49 c-2 27 -1 55 2 62 4 12 95 14 537 14 l531 0 67 -35z
m-231 -322 c3 -61 3 -62 -25 -65 -22 -2 -29 -9 -31 -30 l-3 -28 -250 0 -249 0
0 88 c0 49 3 92 7 95 4 4 128 6 277 5 l271 -3 3 -62z m62 2 c0 -37 -4 -65 -10
-65 -11 0 -14 113 -3 123 12 13 13 7 13 -58z m-902 -97 c3 -26 1 -28 -32 -28
-31 0 -36 3 -36 23 0 31 9 39 40 35 19 -2 26 -10 28 -30z m37 -79 c4 -6 -2
-13 -14 -16 -27 -7 -27 -33 -1 -40 43 -11 17 -24 -42 -21 -61 3 -63 4 -66 31
-6 49 3 57 62 57 30 0 58 -5 61 -11z m165 -34 l0 -45 -60 0 c-59 0 -79 13 -40
25 26 8 26 31 -1 38 -38 10 -9 27 47 27 l54 0 0 -45z m638 -22 c2 -39 -1 -63
-8 -63 -5 0 -10 22 -10 50 0 43 -3 50 -20 50 -16 0 -20 -7 -20 -30 l0 -30
-267 2 -268 3 -3 28 c-7 60 -19 58 300 55 l293 -3 3 -62z m80 -1 c3 -57 1 -62
-18 -62 -18 0 -20 6 -20 58 0 32 3 62 7 66 17 17 28 -5 31 -62z m-777 -81
c-14 -26 -101 -36 -118 -13 -22 28 -15 32 57 32 66 0 70 -1 61 -19z m23 -75
c170 -51 226 -265 103 -395 -104 -109 -287 -91 -363 37 -41 68 -50 127 -30
195 25 85 88 148 171 168 47 11 68 10 119 -5z"/>
<path d="M2487 1469 c-105 -25 -204 -106 -254 -207 -25 -51 -28 -67 -28 -162
0 -96 3 -110 29 -161 35 -71 104 -139 176 -175 78 -39 200 -45 283 -14 204 77
300 315 207 513 -72 154 -252 244 -413 206z m214 -66 c185 -81 251 -319 136
-489 -67 -100 -173 -151 -296 -142 -115 9 -212 75 -269 183 -24 44 -27 62 -27
145 0 89 2 99 34 158 50 92 121 146 221 168 69 16 129 9 201 -23z"/>
<path d="M2467 1396 c-135 -49 -215 -172 -205 -315 20 -261 316 -383 511 -211
105 93 132 264 61 387 -32 56 -105 118 -161 137 -56 19 -154 20 -206 2z m185
-38 c53 -16 131 -87 158 -144 60 -124 2 -291 -124 -356 -55 -28 -141 -34 -202
-14 -178 59 -241 291 -118 434 70 82 179 112 286 80z"/>
<path d="M2536 1219 c-65 -19 -103 -85 -86 -149 28 -103 162 -124 221 -34 60
92 -29 214 -135 183z m93 -65 c63 -80 -42 -181 -116 -112 -30 28 -32 89 -3
118 31 31 93 27 119 -6z"/>
<path d="M850 908 c-90 -61 -111 -173 -49 -260 24 -33 95 -68 139 -68 55 0
117 36 146 86 23 38 26 54 22 105 -5 66 -24 100 -78 137 -46 31 -134 31 -180
0z m150 -33 c47 -24 70 -62 70 -115 0 -95 -80 -158 -169 -132 -89 27 -124 142
-64 212 14 18 36 36 47 40 33 14 84 11 116 -5z"/>
<path d="M865 837 c-30 -30 -35 -42 -35 -80 0 -80 70 -132 145 -107 115 38 94
204 -28 217 -43 5 -49 3 -82 -30z m119 -28 c34 -27 35 -71 1 -104 -13 -14 -33
-25 -45 -25 -30 0 -70 44 -70 76 0 34 36 74 65 74 12 0 34 -9 49 -21z"/>
</g>
</svg>
