<svg viewBox="0 0 48 48" xmlns="http://www.w3.org/2000/svg"><path d="M37.45 25a1.38 1.38 0 0 0-1.6 1.11 11.93 11.93 0 1 1-14.77-13.65A11.92 11.92 0 0 1 35.64 21a1.38 1.38 0 0 0 2.67-.7A14.69 14.69 0 1 0 24.1 38.69a14.89 14.89 0 0 0 3.72-.48 14.74 14.74 0 0 0 10.74-11.63A1.37 1.37 0 0 0 37.45 25Zm-5.17-1a1.37 1.37 0 0 0-1.38-1.37h-9.35l4-4a1.39 1.39 0 0 0 0-2 1.38 1.38 0 0 0-2 0L17.26 23a1.37 1.37 0 0 0 0 1.95l6.3 6.3a1.37 1.37 0 0 0 1 .41 1.38 1.38 0 0 0 1-2.35l-4-4h9.34A1.38 1.38 0 0 0 32.28 24Z" fill="#ffffff" class="fill-000000"></path></svg>